<?xml version="1.0" encoding="UTF-8" standalone="no"?>
<!DOCTYPE svg PUBLIC "-//W3C//DTD SVG 1.1//EN"
 "http://www.w3.org/Graphics/SVG/1.1/DTD/svg11.dtd">
<!-- Generated by graphviz version 2.40.1 (20161225.0304)
 -->
<!-- Pages: 1 -->
<svg width="350pt" height="116pt"
 viewBox="0.00 0.00 350.00 116.00" xmlns="http://www.w3.org/2000/svg" xmlns:xlink="http://www.w3.org/1999/xlink">
<g id="graph0" class="graph" transform="scale(1 1) rotate(0) translate(4 112)">
<polygon fill="#ffffff" stroke="transparent" points="-4,4 -4,-112 346,-112 346,4 -4,4"/>
<!-- n9 -->
<g id="node1" class="node">
<title>n9</title>
<ellipse fill="none" stroke="#000000" cx="27" cy="-90" rx="27" ry="18"/>
<text text-anchor="middle" x="27" y="-85.8" font-family="Times,serif" font-size="14.00" fill="#000000">n9</text>
</g>
<!-- n4 -->
<g id="node2" class="node">
<title>n4</title>
<ellipse fill="none" stroke="#000000" cx="99" cy="-90" rx="27" ry="18"/>
<text text-anchor="middle" x="99" y="-85.8" font-family="Times,serif" font-size="14.00" fill="#000000">n4</text>
</g>
<!-- n41 -->
<g id="node3" class="node">
<title>n41</title>
<ellipse fill="none" stroke="#000000" cx="99" cy="-18" rx="27" ry="18"/>
<text text-anchor="middle" x="99" y="-13.8" font-family="Times,serif" font-size="14.00" fill="#000000">n41</text>
</g>
<!-- n4&#45;&gt;n41 -->
<g id="edge1" class="edge">
<title>n4&#45;&gt;n41</title>
<path fill="none" stroke="#000000" d="M99,-71.8314C99,-64.131 99,-54.9743 99,-46.4166"/>
<polygon fill="#000000" stroke="#000000" points="102.5001,-46.4132 99,-36.4133 95.5001,-46.4133 102.5001,-46.4132"/>
</g>
<!-- n5 -->
<g id="node4" class="node">
<title>n5</title>
<ellipse fill="none" stroke="#000000" cx="171" cy="-90" rx="27" ry="18"/>
<text text-anchor="middle" x="171" y="-85.8" font-family="Times,serif" font-size="14.00" fill="#000000">n5</text>
</g>
<!-- n6 -->
<g id="node5" class="node">
<title>n6</title>
<ellipse fill="none" stroke="#000000" cx="171" cy="-18" rx="27" ry="18"/>
<text text-anchor="middle" x="171" y="-13.8" font-family="Times,serif" font-size="14.00" fill="#000000">n6</text>
</g>
<!-- n5&#45;&gt;n6 -->
<g id="edge2" class="edge">
<title>n5&#45;&gt;n6</title>
<path fill="none" stroke="#000000" d="M165.0843,-72.2022C164.2798,-64.1807 164.0571,-54.5231 164.4162,-45.5957"/>
<polygon fill="#000000" stroke="#000000" points="167.9097,-45.8099 165.105,-35.593 160.9262,-45.3289 167.9097,-45.8099"/>
</g>
<!-- n6&#45;&gt;n5 -->
<g id="edge3" class="edge">
<title>n6&#45;&gt;n5</title>
<path fill="none" stroke="#000000" d="M176.895,-35.593C177.7094,-43.5865 177.942,-53.2363 177.5928,-62.1759"/>
<polygon fill="#000000" stroke="#000000" points="174.0976,-61.9891 176.9157,-72.2022 181.0817,-62.4608 174.0976,-61.9891"/>
</g>
<!-- n7 -->
<g id="node6" class="node">
<title>n7</title>
<ellipse fill="none" stroke="#000000" cx="279" cy="-90" rx="27" ry="18"/>
<text text-anchor="middle" x="279" y="-85.8" font-family="Times,serif" font-size="14.00" fill="#000000">n7</text>
</g>
<!-- n71 -->
<g id="node7" class="node">
<title>n71</title>
<ellipse fill="none" stroke="#000000" cx="243" cy="-18" rx="27" ry="18"/>
<text text-anchor="middle" x="243" y="-13.8" font-family="Times,serif" font-size="14.00" fill="#000000">n71</text>
</g>
<!-- n7&#45;&gt;n71 -->
<g id="edge4" class="edge">
<title>n7&#45;&gt;n71</title>
<path fill="none" stroke="#000000" d="M270.2854,-72.5708C266.0403,-64.0807 260.8464,-53.6929 256.1337,-44.2674"/>
<polygon fill="#000000" stroke="#000000" points="259.237,-42.6477 251.6343,-35.2687 252.976,-45.7782 259.237,-42.6477"/>
</g>
<!-- n72 -->
<g id="node8" class="node">
<title>n72</title>
<ellipse fill="none" stroke="#000000" cx="315" cy="-18" rx="27" ry="18"/>
<text text-anchor="middle" x="315" y="-13.8" font-family="Times,serif" font-size="14.00" fill="#000000">n72</text>
</g>
<!-- n7&#45;&gt;n72 -->
<g id="edge5" class="edge">
<title>n7&#45;&gt;n72</title>
<path fill="none" stroke="#000000" d="M287.7146,-72.5708C291.9597,-64.0807 297.1536,-53.6929 301.8663,-44.2674"/>
<polygon fill="#000000" stroke="#000000" points="305.024,-45.7782 306.3657,-35.2687 298.763,-42.6477 305.024,-45.7782"/>
</g>
</g>
</svg>
