<?xml version="1.0" encoding="UTF-8" standalone="no"?>
<!DOCTYPE svg PUBLIC "-//W3C//DTD SVG 1.1//EN"
 "http://www.w3.org/Graphics/SVG/1.1/DTD/svg11.dtd">
<!-- Generated by graphviz version 2.40.1 (20161225.0304)
 -->
<!-- Title: G Pages: 1 -->
<svg width="746pt" height="332pt"
 viewBox="0.00 0.00 746.00 332.00" xmlns="http://www.w3.org/2000/svg" xmlns:xlink="http://www.w3.org/1999/xlink">
<g id="graph0" class="graph" transform="scale(1 1) rotate(0) translate(4 328)">
<title>G</title>
<polygon fill="#ffffff" stroke="transparent" points="-4,4 -4,-328 742,-328 742,4 -4,4"/>
<!-- n -->
<g id="node1" class="node">
<title>n</title>
<ellipse fill="none" stroke="#000000" cx="243" cy="-306" rx="27" ry="18"/>
<text text-anchor="middle" x="243" y="-301.8" font-family="Times,serif" font-size="14.00" fill="#000000">n</text>
</g>
<!-- n1 -->
<g id="node2" class="node">
<title>n1</title>
<ellipse fill="none" stroke="#000000" cx="135" cy="-234" rx="27" ry="18"/>
<text text-anchor="middle" x="135" y="-229.8" font-family="Times,serif" font-size="14.00" fill="#000000">n1</text>
</g>
<!-- n&#45;&gt;n1 -->
<g id="edge1" class="edge">
<title>n&#45;&gt;n1</title>
<path fill="none" stroke="#000000" d="M223.6918,-293.1278C206.6445,-281.763 181.5981,-265.0654 162.4656,-252.3104"/>
<polygon fill="#000000" stroke="#000000" points="164.4031,-249.3956 154.1411,-246.7607 160.5201,-255.2199 164.4031,-249.3956"/>
</g>
<!-- n2 -->
<g id="node3" class="node">
<title>n2</title>
<ellipse fill="none" stroke="#000000" cx="243" cy="-234" rx="27" ry="18"/>
<text text-anchor="middle" x="243" y="-229.8" font-family="Times,serif" font-size="14.00" fill="#000000">n2</text>
</g>
<!-- n&#45;&gt;n2 -->
<g id="edge2" class="edge">
<title>n&#45;&gt;n2</title>
<path fill="none" stroke="#000000" d="M243,-287.8314C243,-280.131 243,-270.9743 243,-262.4166"/>
<polygon fill="#000000" stroke="#000000" points="246.5001,-262.4132 243,-252.4133 239.5001,-262.4133 246.5001,-262.4132"/>
</g>
<!-- n3 -->
<g id="node4" class="node">
<title>n3</title>
<ellipse fill="none" stroke="#000000" cx="315" cy="-234" rx="27" ry="18"/>
<text text-anchor="middle" x="315" y="-229.8" font-family="Times,serif" font-size="14.00" fill="#000000">n3</text>
</g>
<!-- n&#45;&gt;n3 -->
<g id="edge3" class="edge">
<title>n&#45;&gt;n3</title>
<path fill="none" stroke="#000000" d="M258.2693,-290.7307C268.197,-280.803 281.3153,-267.6847 292.4363,-256.5637"/>
<polygon fill="#000000" stroke="#000000" points="295.1564,-258.7933 299.7527,-249.2473 290.2067,-253.8436 295.1564,-258.7933"/>
</g>
<!-- n11 -->
<g id="node7" class="node">
<title>n11</title>
<ellipse fill="none" stroke="#000000" cx="27" cy="-162" rx="27" ry="18"/>
<text text-anchor="middle" x="27" y="-157.8" font-family="Times,serif" font-size="14.00" fill="#000000">n11</text>
</g>
<!-- n1&#45;&gt;n11 -->
<g id="edge5" class="edge">
<title>n1&#45;&gt;n11</title>
<path fill="none" stroke="#000000" d="M115.6918,-221.1278C98.6445,-209.763 73.5981,-193.0654 54.4656,-180.3104"/>
<polygon fill="#000000" stroke="#000000" points="56.4031,-177.3956 46.1411,-174.7607 52.5201,-183.2199 56.4031,-177.3956"/>
</g>
<!-- n12 -->
<g id="node8" class="node">
<title>n12</title>
<ellipse fill="none" stroke="#000000" cx="99" cy="-162" rx="27" ry="18"/>
<text text-anchor="middle" x="99" y="-157.8" font-family="Times,serif" font-size="14.00" fill="#000000">n12</text>
</g>
<!-- n1&#45;&gt;n12 -->
<g id="edge6" class="edge">
<title>n1&#45;&gt;n12</title>
<path fill="none" stroke="#000000" d="M126.2854,-216.5708C122.0403,-208.0807 116.8464,-197.6929 112.1337,-188.2674"/>
<polygon fill="#000000" stroke="#000000" points="115.237,-186.6477 107.6343,-179.2687 108.976,-189.7782 115.237,-186.6477"/>
</g>
<!-- n13 -->
<g id="node9" class="node">
<title>n13</title>
<ellipse fill="none" stroke="#000000" cx="171" cy="-162" rx="27" ry="18"/>
<text text-anchor="middle" x="171" y="-157.8" font-family="Times,serif" font-size="14.00" fill="#000000">n13</text>
</g>
<!-- n1&#45;&gt;n13 -->
<g id="edge7" class="edge">
<title>n1&#45;&gt;n13</title>
<path fill="none" stroke="#000000" d="M143.7146,-216.5708C147.9597,-208.0807 153.1536,-197.6929 157.8663,-188.2674"/>
<polygon fill="#000000" stroke="#000000" points="161.024,-189.7782 162.3657,-179.2687 154.763,-186.6477 161.024,-189.7782"/>
</g>
<!-- n21 -->
<g id="node10" class="node">
<title>n21</title>
<ellipse fill="none" stroke="#000000" cx="243" cy="-162" rx="27" ry="18"/>
<text text-anchor="middle" x="243" y="-157.8" font-family="Times,serif" font-size="14.00" fill="#000000">n21</text>
</g>
<!-- n2&#45;&gt;n21 -->
<g id="edge8" class="edge">
<title>n2&#45;&gt;n21</title>
<path fill="none" stroke="#000000" d="M243,-215.8314C243,-208.131 243,-198.9743 243,-190.4166"/>
<polygon fill="#000000" stroke="#000000" points="246.5001,-190.4132 243,-180.4133 239.5001,-190.4133 246.5001,-190.4132"/>
</g>
<!-- n22 -->
<g id="node11" class="node">
<title>n22</title>
<ellipse fill="none" stroke="#000000" cx="284" cy="-90" rx="27" ry="18"/>
<text text-anchor="middle" x="284" y="-85.8" font-family="Times,serif" font-size="14.00" fill="#000000">n22</text>
</g>
<!-- n2&#45;&gt;n22 -->
<g id="edge9" class="edge">
<title>n2&#45;&gt;n22</title>
<path fill="none" stroke="#000000" d="M256.8461,-218.1964C264.8725,-208.0257 274.2968,-194.1097 279,-180 285.6291,-160.1127 286.6896,-136.3952 286.1942,-118.3014"/>
<polygon fill="#000000" stroke="#000000" points="289.6817,-117.9416 285.737,-108.1085 282.6887,-118.2553 289.6817,-117.9416"/>
</g>
<!-- n4 -->
<g id="node5" class="node">
<title>n4</title>
<ellipse fill="none" stroke="#000000" cx="387" cy="-306" rx="27" ry="18"/>
<text text-anchor="middle" x="387" y="-301.8" font-family="Times,serif" font-size="14.00" fill="#000000">n4</text>
</g>
<!-- n41 -->
<g id="node6" class="node">
<title>n41</title>
<ellipse fill="none" stroke="#000000" cx="387" cy="-234" rx="27" ry="18"/>
<text text-anchor="middle" x="387" y="-229.8" font-family="Times,serif" font-size="14.00" fill="#000000">n41</text>
</g>
<!-- n4&#45;&gt;n41 -->
<g id="edge4" class="edge">
<title>n4&#45;&gt;n41</title>
<path fill="none" stroke="#000000" d="M387,-287.8314C387,-280.131 387,-270.9743 387,-262.4166"/>
<polygon fill="#000000" stroke="#000000" points="390.5001,-262.4132 387,-252.4133 383.5001,-262.4133 390.5001,-262.4132"/>
</g>
<!-- n131 -->
<g id="node12" class="node">
<title>n131</title>
<ellipse fill="none" stroke="#000000" cx="198" cy="-90" rx="27.589" ry="18"/>
<text text-anchor="middle" x="198" y="-85.8" font-family="Times,serif" font-size="14.00" fill="#000000">n131</text>
</g>
<!-- n13&#45;&gt;n131 -->
<g id="edge10" class="edge">
<title>n13&#45;&gt;n131</title>
<path fill="none" stroke="#000000" d="M177.6742,-144.2022C180.7476,-136.0064 184.4616,-126.1024 187.8695,-117.0145"/>
<polygon fill="#000000" stroke="#000000" points="191.1685,-118.1853 191.4026,-107.593 184.6142,-115.7274 191.1685,-118.1853"/>
</g>
<!-- n221 -->
<g id="node13" class="node">
<title>n221</title>
<ellipse fill="none" stroke="#000000" cx="198" cy="-18" rx="27.589" ry="18"/>
<text text-anchor="middle" x="198" y="-13.8" font-family="Times,serif" font-size="14.00" fill="#000000">n221</text>
</g>
<!-- n22&#45;&gt;n221 -->
<g id="edge11" class="edge">
<title>n22&#45;&gt;n221</title>
<path fill="none" stroke="#000000" d="M267.0092,-75.7751C254.4876,-65.2919 237.2527,-50.8628 223.1396,-39.0471"/>
<polygon fill="#000000" stroke="#000000" points="225.1643,-36.1775 215.2499,-32.4418 220.6707,-41.5448 225.1643,-36.1775"/>
</g>
<!-- n131&#45;&gt;n221 -->
<g id="edge12" class="edge">
<title>n131&#45;&gt;n221</title>
<path fill="none" stroke="#000000" d="M192.0843,-72.2022C191.2798,-64.1807 191.0571,-54.5231 191.4162,-45.5957"/>
<polygon fill="#000000" stroke="#000000" points="194.9097,-45.8099 192.105,-35.593 187.9262,-45.3289 194.9097,-45.8099"/>
</g>
<!-- n221&#45;&gt;n131 -->
<g id="edge13" class="edge">
<title>n221&#45;&gt;n131</title>
<path fill="none" stroke="#000000" d="M203.895,-35.593C204.7094,-43.5865 204.942,-53.2363 204.5928,-62.1759"/>
<polygon fill="#000000" stroke="#000000" points="201.0976,-61.9891 203.9157,-72.2022 208.0817,-62.4608 201.0976,-61.9891"/>
</g>
<!-- n5 -->
<g id="node14" class="node">
<title>n5</title>
<ellipse fill="none" stroke="#000000" cx="459" cy="-306" rx="27" ry="18"/>
<text text-anchor="middle" x="459" y="-301.8" font-family="Times,serif" font-size="14.00" fill="#000000">n5</text>
</g>
<!-- n6 -->
<g id="node15" class="node">
<title>n6</title>
<ellipse fill="none" stroke="#000000" cx="459" cy="-234" rx="27" ry="18"/>
<text text-anchor="middle" x="459" y="-229.8" font-family="Times,serif" font-size="14.00" fill="#000000">n6</text>
</g>
<!-- n5&#45;&gt;n6 -->
<g id="edge14" class="edge">
<title>n5&#45;&gt;n6</title>
<path fill="none" stroke="#000000" d="M453.0843,-288.2022C452.2798,-280.1807 452.0571,-270.5231 452.4162,-261.5957"/>
<polygon fill="#000000" stroke="#000000" points="455.9097,-261.8099 453.105,-251.593 448.9262,-261.3289 455.9097,-261.8099"/>
</g>
<!-- n6&#45;&gt;n5 -->
<g id="edge15" class="edge">
<title>n6&#45;&gt;n5</title>
<path fill="none" stroke="#000000" d="M464.895,-251.593C465.7094,-259.5865 465.942,-269.2363 465.5928,-278.1759"/>
<polygon fill="#000000" stroke="#000000" points="462.0976,-277.9891 464.9157,-288.2022 469.0817,-278.4608 462.0976,-277.9891"/>
</g>
<!-- n7 -->
<g id="node16" class="node">
<title>n7</title>
<ellipse fill="none" stroke="#000000" cx="567" cy="-306" rx="27" ry="18"/>
<text text-anchor="middle" x="567" y="-301.8" font-family="Times,serif" font-size="14.00" fill="#000000">n7</text>
</g>
<!-- n71 -->
<g id="node17" class="node">
<title>n71</title>
<ellipse fill="none" stroke="#000000" cx="531" cy="-234" rx="27" ry="18"/>
<text text-anchor="middle" x="531" y="-229.8" font-family="Times,serif" font-size="14.00" fill="#000000">n71</text>
</g>
<!-- n7&#45;&gt;n71 -->
<g id="edge16" class="edge">
<title>n7&#45;&gt;n71</title>
<path fill="none" stroke="#000000" d="M558.2854,-288.5708C554.0403,-280.0807 548.8464,-269.6929 544.1337,-260.2674"/>
<polygon fill="#000000" stroke="#000000" points="547.237,-258.6477 539.6343,-251.2687 540.976,-261.7782 547.237,-258.6477"/>
</g>
<!-- n72 -->
<g id="node18" class="node">
<title>n72</title>
<ellipse fill="none" stroke="#000000" cx="603" cy="-234" rx="27" ry="18"/>
<text text-anchor="middle" x="603" y="-229.8" font-family="Times,serif" font-size="14.00" fill="#000000">n72</text>
</g>
<!-- n7&#45;&gt;n72 -->
<g id="edge17" class="edge">
<title>n7&#45;&gt;n72</title>
<path fill="none" stroke="#000000" d="M575.7146,-288.5708C579.9597,-280.0807 585.1536,-269.6929 589.8663,-260.2674"/>
<polygon fill="#000000" stroke="#000000" points="593.024,-261.7782 594.3657,-251.2687 586.763,-258.6477 593.024,-261.7782"/>
</g>
<!-- n8 -->
<g id="node19" class="node">
<title>n8</title>
<ellipse fill="none" stroke="#000000" cx="639" cy="-306" rx="27" ry="18"/>
<text text-anchor="middle" x="639" y="-301.8" font-family="Times,serif" font-size="14.00" fill="#000000">n8</text>
</g>
<!-- n9 -->
<g id="node20" class="node">
<title>n9</title>
<ellipse fill="none" stroke="#000000" cx="711" cy="-306" rx="27" ry="18"/>
<text text-anchor="middle" x="711" y="-301.8" font-family="Times,serif" font-size="14.00" fill="#000000">n9</text>
</g>
</g>
</svg>
